<svg width="80" height="76" viewBox="0 0 80 76" fill="none" xmlns="http://www.w3.org/2000/svg">
<rect opacity="0.2" y="14" width="62" height="62" rx="3" fill="#F7E32B"/>
<path d="M63.0112 6C63.0112 7.38071 63.3919 8.49996 62.0112 8.49996C60.6305 8.49996 59.5112 7.38067 59.5112 5.99996C59.5112 4.61925 60.6305 3.49996 62.0112 3.49996C63.3919 3.49996 63.0112 4.61929 63.0112 6Z" fill="#FFE68E"/>
<path d="M27.5 37.5C27.5 44.9558 28.375 50.9998 26.8184 50.9998C25.2618 50.9998 24 44.9556 24 37.4998C24 30.0439 25.9434 23 27.5 23C27.9458 23.5 27.5 27.5 27.5 37.5Z" fill="#FFE68E"/>
<path d="M77.5417 0H57.875C57.223 0 56.5977 0.259002 56.1367 0.720029C55.6757 1.18106 55.4167 1.80634 55.4167 2.45833V7.375C55.4182 8.67851 55.9367 9.92818 56.8584 10.8499C57.7802 11.7716 59.0298 12.2901 60.3333 12.2917H65.25V50.3958C65.25 51.3738 64.8615 52.3117 64.17 53.0033C63.4784 53.6948 62.5405 54.0833 61.5625 54.0833C60.5845 54.0833 59.6466 53.6948 58.955 53.0033C58.2635 52.3117 57.875 51.3738 57.875 50.3958V47.9375C57.8724 45.6563 56.9651 43.4693 55.352 41.8563C53.739 40.2433 51.552 39.3359 49.2708 39.3333H45.5833V36.0991C45.5803 34.4641 45.0369 32.876 44.0377 31.5819L37.0185 22.5245C36.3267 21.6377 35.4425 20.9197 34.4326 20.4246C33.4227 19.9295 32.3136 19.6704 31.1889 19.6667H30.8333V14.75H25.9167V20.0895C24.4799 20.5993 23.2361 21.5412 22.3558 22.7859C21.4756 24.0306 21.002 25.5171 21 27.0417V49.1667C21.0025 51.0184 21.7006 52.8016 22.956 54.1627C24.2114 55.5239 25.9325 56.3637 27.7779 56.5155C28.4686 57.2965 29.3173 57.9219 30.2679 58.3502C31.2184 58.7785 32.2491 59 33.2917 59C34.3342 59 35.3649 58.7785 36.3155 58.3502C37.266 57.9219 38.1147 57.2965 38.8054 56.5155C40.6509 56.3637 42.3719 55.5239 43.6273 54.1627C44.8827 52.8016 45.5809 51.0184 45.5833 49.1667V44.25H49.2708C50.2485 44.2511 51.1858 44.6399 51.8771 45.3312C52.5684 46.0225 52.9573 46.9598 52.9583 47.9375V50.3958C52.9583 52.6778 53.8648 54.8663 55.4784 56.4799C57.092 58.0935 59.2805 59 61.5625 59C63.8445 59 66.033 58.0935 67.6466 56.4799C69.2602 54.8663 70.1667 52.6778 70.1667 50.3958V12.2917H75.0833C76.3868 12.2901 77.6365 11.7716 78.5582 10.8499C79.4799 9.92818 79.9985 8.67851 80 7.375V2.45833C80 1.80634 79.741 1.18106 79.28 0.720029C78.8189 0.259002 78.1937 0 77.5417 0V0ZM33.2917 54.0833C32.8055 54.0833 32.3302 53.9392 31.9259 53.669C31.5216 53.3989 31.2065 53.015 31.0205 52.5658C30.8344 52.1166 30.7857 51.6223 30.8806 51.1454C30.9754 50.6685 31.2096 50.2305 31.5534 49.8867C31.8972 49.5429 32.3352 49.3088 32.8121 49.2139C33.2889 49.119 33.7832 49.1677 34.2324 49.3538C34.6816 49.5399 35.0656 49.8549 35.3357 50.2592C35.6058 50.6635 35.75 51.1388 35.75 51.625C35.7493 52.2768 35.49 52.9016 35.0292 53.3625C34.5683 53.8234 33.9434 54.0826 33.2917 54.0833ZM40.6667 49.1667C40.6664 49.4717 40.609 49.7739 40.4973 50.0578C40.1391 48.4131 39.2289 46.9405 37.9181 45.8845C36.6073 44.8285 34.9746 44.2526 33.2914 44.2526C31.6081 44.2526 29.9755 44.8285 28.6646 45.8845C27.3538 46.9405 26.4437 48.4131 26.0854 50.0578C25.974 49.7739 25.9167 49.4716 25.9167 49.1667V27.0417C25.9174 26.3899 26.1766 25.765 26.6375 25.3042C27.0984 24.8433 27.7232 24.5841 28.375 24.5833H31.1889C31.5642 24.5821 31.9348 24.6675 32.2718 24.8327C32.6088 24.9979 32.9032 25.2385 33.1322 25.5359L40.1513 34.5927C40.4845 35.0241 40.6657 35.5535 40.6667 36.0985V49.1667ZM75.0833 7.375H60.3333V4.91667H75.0849V7.375H75.0833Z" fill="#484848"/>
<path d="M30.8333 34.4167C32.191 34.4167 33.2917 33.316 33.2917 31.9583C33.2917 30.6006 32.191 29.5 30.8333 29.5C29.4756 29.5 28.375 30.6006 28.375 31.9583C28.375 33.316 29.4756 34.4167 30.8333 34.4167Z" fill="#F2CC52"/>
</svg>
