<svg width="78" height="76" viewBox="0 0 78 76" fill="none" xmlns="http://www.w3.org/2000/svg">
<rect opacity="0.2" y="14" width="62" height="62" rx="3" fill="#F7E32B"/>
<g clip-path="url(#clip0)">
<path d="M34 56C34 56 27 44 25 22.5L20.5 27.5L23 44L30.5 56C32.5 57.5 34 56 34 56Z" fill="#FFE68E"/>
<path d="M56.3348 36.9796C56.3348 36.9796 55.5368 23.1101 63.5028 3.0404L57.2248 5.45648L51.9716 21.2964L53.2152 35.3926C54.3177 37.6364 56.3348 36.9796 56.3348 36.9796Z" fill="#FFE68E"/>
<path d="M75.9664 5.87739C73.975 2.84754 70.9118 0.832288 67.3413 0.203C63.7713 -0.426287 60.2036 0.419515 57.2962 2.58511C54.3887 4.75116 52.5567 7.9273 52.1376 11.5284L50.5887 24.8497L50.1066 28.994C50.0954 29.0926 50.085 29.1907 50.076 29.2893C50.04 29.6818 50.0233 30.0721 50.026 30.4592C50.0602 36.171 54.1803 41.1769 59.9375 42.192C60.6384 42.3153 61.3357 42.3752 62.0248 42.3752C66.5707 42.3752 70.7349 39.7734 72.7506 35.7366C73.1539 34.9291 73.4731 34.0657 73.69 33.1528L77.7548 16.0455C78.5929 12.5182 77.9582 8.90725 75.9664 5.87739ZM70.3266 32.3534C70.2938 32.4907 70.2582 32.6266 70.2195 32.7608C69.2738 36.0224 66.5032 38.3415 63.2735 38.8232C62.4709 38.9429 61.6404 38.9488 60.8023 38.8272C60.714 38.8146 60.6262 38.8029 60.538 38.7876C56.2316 38.0282 53.2125 34.1319 53.502 29.8128C53.5114 29.6737 53.524 29.5338 53.5402 29.3938L53.8103 27.0702L70.8673 30.0775L70.3266 32.3534ZM74.3913 15.2465L71.668 26.7083L54.2105 23.6302L55.5717 11.9276C55.8791 9.28221 57.225 6.94871 59.3609 5.35749C61.0363 4.10972 63.0093 3.45837 65.0484 3.45837C65.6092 3.45837 66.1755 3.50744 66.7413 3.60737C69.3643 4.06965 71.6145 5.55015 73.0774 7.77606C74.5408 10.002 75.0071 12.6551 74.3913 15.2465Z" fill="#484848"/>
<path d="M47.1239 45.6193L46.6418 41.4745L45.0929 28.1532C44.6738 24.5521 42.8422 21.376 39.9344 19.2099C37.0269 17.0443 33.4592 16.1985 29.8887 16.8278C26.3187 17.4571 23.2555 19.4728 21.2641 22.5022C19.2727 25.5321 18.6376 29.143 19.4753 32.6703L23.5405 49.7776C23.7574 50.6905 24.0766 51.5539 24.4799 52.3614C26.4956 56.3982 30.6598 59 35.2057 59C35.8949 59 36.5921 58.9401 37.2925 58.8168C43.0502 57.8017 47.1698 52.7958 47.2045 47.0845C47.2067 46.6969 47.1905 46.3067 47.1545 45.9141C47.1455 45.816 47.1352 45.7174 47.1239 45.6193ZM22.8392 31.8713C22.2234 29.2799 22.6897 26.6268 24.1526 24.4013C25.6156 22.1754 27.8663 20.6949 30.4892 20.2322C31.055 20.1327 31.6213 20.0832 32.1821 20.0832C34.2208 20.0832 36.1942 20.7345 37.8691 21.9828C40.0055 23.5735 41.3509 25.907 41.6588 28.5529L43.0196 40.2551L25.5625 43.3335L22.8392 31.8713ZM36.6925 55.4124C36.6043 55.4277 36.516 55.4394 36.4283 55.4525C35.5901 55.5736 34.7592 55.5677 33.9566 55.448C30.7273 54.9663 27.9567 52.6473 27.011 49.3856C26.9723 49.2514 26.9363 49.1155 26.9039 48.9782L26.3628 46.7023L43.4197 43.695L43.6898 46.0186C43.706 46.1586 43.7191 46.2981 43.7285 46.4377C44.018 50.7567 40.9989 54.6531 36.6925 55.4124Z" fill="#484848"/>
</g>
<defs>
<clipPath id="clip0">
<rect x="19" width="59" height="59" fill="white"/>
</clipPath>
</defs>
</svg>
