<svg width="74" height="74" viewBox="0 0 74 74" fill="none" xmlns="http://www.w3.org/2000/svg">
<rect opacity="0.2" y="12" width="62" height="62" rx="3" fill="#F7E32B"/>
<path d="M24.2188 45.1719V13.8281C24.2188 7.46385 29.3779 2.30469 35.7422 2.30469L60.1661 2.21492L60.1719 2.18945L28.8281 2.30469C22.4638 2.30469 17.3047 7.46385 17.3047 13.8281V45.1719C17.3047 51.536 22.4638 56.6953 28.8281 56.6953L34.827 56.6591C28.8907 56.1927 24.2188 51.228 24.2188 45.1719Z" fill="#FFE68E"/>
<path d="M60.1719 59H28.8281C21.2033 59 15 52.7967 15 45.1719V13.8281C15 6.2033 21.2033 0 28.8281 0H60.1719C67.7967 0 74 6.2033 74 13.8281V22.125C74 23.3979 72.9682 24.4297 71.6953 24.4297C70.4224 24.4297 69.3906 23.3979 69.3906 22.125V13.8281C69.3906 8.74491 65.2551 4.60938 60.1719 4.60938H28.8281C23.7449 4.60938 19.6094 8.74491 19.6094 13.8281V45.1719C19.6094 50.2551 23.7449 54.3906 28.8281 54.3906H60.1719C62.5212 54.3906 64.7585 53.5068 66.4721 51.9018C67.4011 51.0317 68.8595 51.0794 69.7296 52.0085C70.5998 52.9376 70.5521 54.396 69.6231 55.2662C67.0522 57.6739 63.6957 59 60.1719 59ZM64.7812 14.8652C64.7812 13.5924 63.7494 12.5605 62.4766 12.5605H26.5234C25.2506 12.5605 24.2188 13.5924 24.2188 14.8652C24.2188 16.1381 25.2506 17.1699 26.5234 17.1699H62.4766C63.7494 17.1699 64.7812 16.1381 64.7812 14.8652ZM67.3303 45.9974L71.973 41.3689C73.28 40.0657 74 38.3326 74 36.4887C74 34.6449 73.2801 32.9116 71.973 31.6083C71.9682 31.6036 71.9633 31.5988 71.9585 31.594L67.3158 27.0468C66.4065 26.1561 64.9472 26.1713 64.0567 27.0807C63.166 27.99 63.1811 29.4492 64.0904 30.3397L68.7243 34.8785C69.154 35.3098 69.3905 35.8813 69.3905 36.4887C69.3905 37.0987 69.1519 37.6724 68.7185 38.1044L64.0758 42.7329C63.1744 43.6317 63.1721 45.0909 64.0708 45.9922C64.521 46.4439 65.112 46.6698 65.703 46.6698C66.2917 46.6699 66.8805 46.4458 67.3303 45.9974ZM64.8965 36.2988C64.8965 35.0259 63.8647 33.9941 62.5918 33.9941H55.332C54.0592 33.9941 53.0273 35.0259 53.0273 36.2988C53.0273 37.5717 54.0592 38.6035 55.332 38.6035H62.5918C63.8647 38.6035 64.8965 37.5717 64.8965 36.2988Z" fill="#484848"/>
<circle cx="39" cy="36" r="8" fill="#F2CC52"/>
</svg>
