<svg width="59" height="51" viewBox="0 0 59 51" fill="none" xmlns="http://www.w3.org/2000/svg">
<path d="M58.2547 23.828L52.7895 19.1316V10.829C52.7895 9.52909 51.7544 8.48078 50.4709 8.48078H48.4421C47.2207 8.48078 46.227 9.48715 46.227 10.7242V13.5126L31.1768 0.597533C30.2453 -0.199178 28.7547 -0.199178 27.8232 0.597533L0.745263 23.828C0.269123 24.2263 0 24.8134 0 25.4004V30.5581C0 31.3757 0.47614 32.0886 1.28351 32.466C2.23579 32.9063 3.33298 32.7805 4.09895 32.1096C4.57509 31.7112 5.23754 31.7322 5.67228 31.9418C5.8586 32.0257 6.29333 32.2773 6.29333 32.7805V48.8405C6.29333 49.6582 6.76947 50.371 7.57684 50.7484C7.94947 50.9161 8.34281 51 8.73614 51C9.33649 51 9.93684 50.7903 10.3923 50.392L14.6154 46.7649C15.0916 46.3665 15.3607 45.7794 15.3607 45.1924V22.8425C15.3607 22.591 15.4849 22.3603 15.6919 22.1716L28.5684 11.1225C29.0653 10.7032 29.914 10.7032 30.4316 11.1225L54.9011 32.1305C55.667 32.7805 56.7642 32.9272 57.7165 32.4869C58.5239 32.1096 59 31.3967 59 30.579V25.4214C59 24.8134 58.7309 24.2473 58.2547 23.828ZM47.3863 10.7242C47.3863 10.1371 47.8625 9.65488 48.4421 9.65488H50.4709C51.1126 9.65488 51.6302 10.179 51.6302 10.829V18.1461L47.3863 14.498V10.7242ZM57.8407 30.5581C57.8407 31.0613 57.406 31.3128 57.2196 31.4177C56.7849 31.6273 56.1225 31.6483 55.6463 31.229L31.1768 10.221C30.2453 9.42426 28.7547 9.42426 27.8232 10.221L14.9467 21.2701C14.4705 21.6684 14.2014 22.2555 14.2014 22.8425V45.2134C14.2014 45.465 14.0772 45.6956 13.8702 45.8843L9.64702 49.5114C9.17088 49.9307 8.50842 49.9098 8.07368 49.7001C7.88737 49.6162 7.45263 49.3646 7.45263 48.8615V32.8014C7.45263 31.9838 6.97649 31.2709 6.16912 30.8935C5.79649 30.7258 5.40316 30.6419 5.03053 30.6419C4.43018 30.6419 3.82982 30.8516 3.37439 31.2499C2.89825 31.6693 2.23579 31.6483 1.80105 31.4386C1.61474 31.3548 1.18 31.0822 1.18 30.579V25.4214C1.18 25.1908 1.30421 24.9392 1.51123 24.7505L28.5684 1.49907C29.0653 1.05879 29.914 1.05879 30.4316 1.49907L57.5095 24.7295C57.7165 24.9182 57.8407 25.1488 57.8407 25.4004V30.5581Z" fill="black"/>
</svg>
