<svg width="72" height="76" viewBox="0 0 72 76" fill="none" xmlns="http://www.w3.org/2000/svg">
<rect opacity="0.2" y="14" width="62" height="62" rx="3" fill="#F7E32B"/>
<path d="M27.2891 45.1766V13.8234C27.2891 7.46177 32.4336 2.30469 38.7798 2.30469H31.7832C25.4189 2.30469 20.2598 7.46385 20.2598 13.8281V45.1719C20.2598 51.536 25.4189 56.6953 31.7832 56.6953H38.7798C32.4336 56.6953 27.2891 51.5382 27.2891 45.1766Z" fill="#FFE68E"/>
<path d="M53.1016 59H31.8984C24.2736 59 18.0703 52.7967 18.0703 45.1719V13.8281C18.0703 6.2033 24.2736 0 31.8984 0H53.1016C60.7264 0 66.9297 6.2033 66.9297 13.8281V45.1719C66.9297 52.7967 60.7264 59 53.1016 59ZM31.8984 4.60938C26.8152 4.60938 22.6797 8.74491 22.6797 13.8281V45.1719C22.6797 50.2551 26.8152 54.3906 31.8984 54.3906H53.1016C58.1848 54.3906 62.3203 50.2551 62.3203 45.1719V13.8281C62.3203 8.74491 58.1848 4.60938 53.1016 4.60938H31.8984ZM54.9453 11.293C54.9453 10.0201 53.9135 8.98828 52.6406 8.98828C51.3677 8.98828 50.3359 10.0201 50.3359 11.293C50.3359 13.1992 48.7851 14.75 46.8789 14.75H38.1211C36.2149 14.75 34.6641 13.1992 34.6641 11.293C34.6641 10.0201 33.6323 8.98828 32.3594 8.98828C31.0865 8.98828 30.0547 10.0201 30.0547 11.293C30.0547 15.7408 33.6733 19.3594 38.1211 19.3594H46.8789C51.3267 19.3594 54.9453 15.7408 54.9453 11.293Z" fill="#484848"/>
<path d="M40.9007 43.3281C38.9824 43.3281 37.1801 42.5758 35.8255 41.2094L31.4141 36.76C30.518 35.8561 30.5242 34.3969 31.4281 33.5007C32.3321 32.6045 33.7914 32.611 34.6874 33.5148L39.0987 37.9642C39.5811 38.4507 40.2211 38.7187 40.9007 38.7187C41.5804 38.7187 42.2204 38.4507 42.7029 37.9642L51.8125 28.7973C52.7098 27.8942 54.169 27.8901 55.0718 28.787C55.9747 29.6843 55.9793 31.1435 55.0821 32.0463L45.9743 41.2113C44.6214 42.5757 42.8192 43.3281 40.9007 43.3281Z" fill="#F2CC52"/>
</svg>
