<svg width="57" height="40" viewBox="0 0 57 40" fill="none" xmlns="http://www.w3.org/2000/svg">
<path d="M18.1824 26.4271C18.1824 26.6394 17.9835 26.8191 17.7514 26.8191H15.4807C15.3315 26.8191 15.2155 26.9171 15.2155 27.0477V31.8497C15.2155 32.062 15.0166 32.2417 14.7846 32.2417H14.7017C14.4531 32.2417 14.2708 32.062 14.2708 31.8497V26.4271C14.2708 26.2148 14.4696 26.0351 14.7017 26.0351H17.7348C17.9835 26.0188 18.1824 26.1984 18.1824 26.4271Z" fill="black"/>
<path d="M24.3149 26.7865C23.7679 26.2311 22.9889 25.9371 21.9945 25.9371C20.9834 25.9371 20.1878 26.2148 19.6409 26.7701C19.0939 27.3255 18.8121 28.1094 18.8121 29.1221C18.8121 30.1348 19.0939 30.9351 19.6409 31.4904C20.1878 32.0457 20.9834 32.3397 21.9945 32.3397C22.9724 32.3397 23.7679 32.0457 24.3149 31.4904C24.8619 30.9188 25.1436 30.1348 25.1436 29.1384C25.1436 28.1421 24.8619 27.3418 24.3149 26.7865ZM21.9945 31.5394C21.2817 31.5394 20.7348 31.3271 20.3701 30.9351C20.0055 30.5268 19.8066 29.9224 19.8066 29.1221C19.8066 28.3381 19.9889 27.7338 20.3701 27.3255C20.7348 26.9171 21.2983 26.7211 22.011 26.7211C22.7237 26.7211 23.2707 26.9335 23.6188 27.3255C23.9834 27.7338 24.1657 28.3381 24.1657 29.1221C24.1657 29.9224 23.9834 30.5268 23.6188 30.9351C23.2541 31.3434 22.6906 31.5394 21.9945 31.5394Z" fill="black"/>
<path d="M30.8287 26.4108C30.8287 26.6231 30.6298 26.8028 30.3978 26.8028H28.9724C28.8232 26.8028 28.7072 26.9008 28.7072 27.0314V31.8497C28.7072 32.062 28.5083 32.2417 28.2762 32.2417H28.1934C27.9613 32.2417 27.7624 32.062 27.7624 31.8497V27.0477C27.7624 26.9171 27.6464 26.8191 27.4972 26.8191H26.0718C25.8398 26.8191 25.6409 26.6394 25.6409 26.4271C25.6409 26.2148 25.8398 26.0351 26.0718 26.0351H30.3978C30.6464 26.0188 30.8287 26.1984 30.8287 26.4108Z" fill="black"/>
<path d="M36.8287 26.7865C36.2652 26.2311 35.5027 25.9371 34.5082 25.9371C33.4972 25.9371 32.7016 26.2148 32.1547 26.7701C31.6077 27.3255 31.3259 28.1094 31.3259 29.1221C31.3259 30.1348 31.6077 30.9351 32.1547 31.4904C32.7016 32.0457 33.4972 32.3397 34.5082 32.3397C35.4862 32.3397 36.2817 32.0457 36.8287 31.4904C37.3922 30.9188 37.674 30.1348 37.674 29.1384C37.674 28.1421 37.3757 27.3418 36.8287 26.7865ZM34.5082 31.5394C33.7955 31.5394 33.2486 31.3271 32.8839 30.9351C32.5193 30.5268 32.3204 29.9224 32.3204 29.1221C32.3204 28.3381 32.5027 27.7338 32.8839 27.3255C33.2486 26.9171 33.7955 26.7211 34.5082 26.7211C35.221 26.7211 35.7679 26.9335 36.1326 27.3255C36.4972 27.7338 36.6795 28.3381 36.6795 29.1221C36.6795 29.9224 36.4972 30.5268 36.1326 30.9351C35.7679 31.3434 35.221 31.5394 34.5082 31.5394Z" fill="black"/>
<path d="M42.4972 28.9588C42.7956 28.8771 43.0442 28.7301 43.2265 28.5504C43.4586 28.3054 43.5912 27.9788 43.5912 27.6031C43.5912 27.0641 43.3757 26.6558 42.9613 26.3945C42.547 26.1495 41.884 26.0188 40.9889 26.0188H39.4475C39.1989 26.0188 39 26.1985 39 26.4271V31.8334C39 32.0621 39.1989 32.2417 39.4475 32.2417H41.4199C42.1657 32.2417 42.7459 32.0784 43.1602 31.7681C43.5912 31.4578 43.8066 31.0004 43.8066 30.4288C43.8066 29.6611 43.3757 29.1711 42.4972 28.9588ZM41.2541 31.4741H40.2099C40.0608 31.4741 39.9282 31.3598 39.9282 31.2291V29.6121C39.9282 29.4814 40.0608 29.3671 40.2099 29.3671H41.1878C41.7348 29.3671 42.1657 29.4488 42.4309 29.6121C42.6796 29.7754 42.8122 30.0204 42.8122 30.3798C42.8122 30.7554 42.6796 31.0331 42.4309 31.1964C42.1823 31.3924 41.7845 31.4741 41.2541 31.4741ZM39.9448 27.0315C39.9448 26.9008 40.0773 26.7865 40.2265 26.7865H41.0055C41.5691 26.7865 42 26.8518 42.2486 26.9988C42.4972 27.1295 42.6133 27.3581 42.6133 27.6685C42.6133 28.0114 42.5138 28.2401 42.2818 28.3871C42.0663 28.5341 41.6685 28.5994 41.1381 28.5994H40.2099C40.0608 28.5994 39.9282 28.4851 39.9282 28.3544V27.0315H39.9448Z" fill="black"/>
<path d="M51.4144 26.4108V31.8661C51.4144 32.0784 51.232 32.2581 50.9834 32.2581H50.884C50.6519 32.2581 50.4696 32.0784 50.4696 31.8661V26.4108C50.4696 26.1985 50.6519 26.0188 50.884 26.0188H50.9834C51.232 26.0188 51.4144 26.1985 51.4144 26.4108Z" fill="black"/>
<path d="M48.9116 29.0404C48.4807 28.7464 47.8508 28.5994 47.0387 28.5994H46.2763C46.1437 28.5994 46.0276 28.5014 46.0276 28.3871V26.4108C46.0276 26.1985 45.8453 26.0188 45.6133 26.0188H45.5138C45.2818 26.0188 45.0829 26.1985 45.0829 26.4108V31.8661C45.0829 32.0784 45.2652 32.2581 45.5138 32.2581H47.1713C47.9503 32.2581 48.547 32.0948 48.9613 31.7844C49.3757 31.4578 49.5912 31.0004 49.5912 30.4124C49.5746 29.7918 49.3591 29.3508 48.9116 29.0404ZM47.0884 31.4741H46.2928C46.1602 31.4741 46.0442 31.3761 46.0442 31.2618V29.6284C46.0442 29.4978 46.1602 29.4161 46.2928 29.4161H46.9558C47.5525 29.4161 47.9834 29.4978 48.2321 29.6611C48.4807 29.8081 48.5967 30.0531 48.5967 30.4124C48.5967 30.7718 48.4807 31.0331 48.2321 31.2128C48 31.3924 47.6022 31.4741 47.0884 31.4741Z" fill="black"/>
<path d="M57 31.8498C57 32.0784 56.8177 32.2417 56.5691 32.2417H53.5359C53.3039 32.2417 53.105 32.0621 53.105 31.8498V26.4108C53.105 26.1985 53.2873 26.0188 53.5359 26.0188H56.5856C56.8177 26.0188 57.0166 26.1985 57.0166 26.4108C57.0166 26.6231 56.8343 26.8028 56.5856 26.8028H54.3149C54.1658 26.8028 54.0497 26.9008 54.0497 27.0315V28.3708C54.0497 28.5014 54.1658 28.5994 54.3149 28.5994H56.4033C56.6354 28.5994 56.8343 28.7791 56.8343 28.9914C56.8343 29.2038 56.6519 29.3834 56.4033 29.3834H54.3149C54.1658 29.3834 54.0497 29.4814 54.0497 29.6121V31.2128C54.0497 31.3434 54.1658 31.4414 54.3149 31.4414H56.5856C56.8177 31.4578 57 31.6211 57 31.8498Z" fill="black"/>
<path d="M16.0443 33.8914H14.7349C14.4862 33.8914 14.2874 34.0874 14.2874 34.3161V39.5753C14.2874 39.804 14.4862 40 14.7349 40C14.9835 40 15.199 39.804 15.199 39.5753V37.9257C15.199 37.7787 15.3316 37.6644 15.4973 37.6644H15.8951C16.7404 37.6644 17.4034 37.501 17.8675 37.158C18.3316 36.815 18.5802 36.325 18.5802 35.7044C18.547 34.4957 17.7017 33.8914 16.0443 33.8914ZM15.7791 36.8967H15.4807C15.315 36.8967 15.1824 36.7824 15.1824 36.6354V34.9204C15.1824 34.7734 15.315 34.659 15.4807 34.659H15.9448C16.5083 34.659 16.9393 34.757 17.2045 34.9367C17.4697 35.1164 17.5857 35.3777 17.5857 35.7534C17.5857 36.1617 17.4531 36.4557 17.1713 36.6354C16.9061 36.815 16.442 36.8967 15.7791 36.8967Z" fill="black"/>
<path d="M23.5194 39.608C23.5194 39.8203 23.3371 40 23.105 40H20.1547C19.9227 40 19.7404 39.8203 19.7404 39.608V34.2671C19.7404 34.0547 19.9227 33.8751 20.1547 33.8751H23.105C23.3371 33.8751 23.5194 34.0547 23.5194 34.2671C23.5194 34.4794 23.3371 34.6591 23.105 34.6591H20.9006C20.768 34.6591 20.652 34.7571 20.652 34.8877V36.1944C20.652 36.325 20.768 36.423 20.9006 36.423H22.9227C23.1547 36.423 23.3371 36.5864 23.3371 36.815C23.3371 37.0274 23.1547 37.207 22.9227 37.207H20.9006C20.768 37.207 20.652 37.305 20.652 37.4357V39.02C20.652 39.1507 20.768 39.2487 20.9006 39.2487H23.105C23.3371 39.216 23.5194 39.3957 23.5194 39.608Z" fill="black"/>
<path d="M32.5525 34.3161V39.5753C32.5525 39.804 32.3536 40 32.0885 40H25.2432C24.9945 40 24.7957 39.804 24.7957 39.5753V34.3161C24.7957 34.0874 24.9945 33.8914 25.2432 33.8914C25.4918 33.8914 25.7073 34.0874 25.7073 34.3161V38.9547C25.7073 39.1017 25.8398 39.216 26.0056 39.216H27.9117C28.0774 39.216 28.21 39.1017 28.21 38.9547V34.3161C28.21 34.0874 28.4089 33.8914 28.6741 33.8914C28.9227 33.8914 29.1382 34.0874 29.1382 34.3161V38.9547C29.1382 39.1017 29.2708 39.216 29.4365 39.216H31.326C31.4918 39.216 31.6244 39.1017 31.6244 38.9547V34.3161C31.6244 34.0874 31.8233 33.8914 32.0719 33.8914C32.3371 33.8914 32.5525 34.0874 32.5525 34.3161Z" fill="black"/>
<path d="M37.9393 39.608C37.9393 39.8203 37.757 40 37.5249 40H34.5746C34.3426 40 34.1603 39.8203 34.1603 39.608V34.2671C34.1603 34.0547 34.3426 33.8751 34.5746 33.8751H37.5249C37.757 33.8751 37.9393 34.0547 37.9393 34.2671C37.9393 34.4794 37.757 34.6591 37.5249 34.6591H35.3371C35.2045 34.6591 35.0885 34.7571 35.0885 34.8877V36.1944C35.0885 36.325 35.2045 36.423 35.3371 36.423H37.3592C37.5912 36.423 37.7735 36.5864 37.7735 36.815C37.7735 37.0274 37.5912 37.207 37.3592 37.207H35.3371C35.2045 37.207 35.0885 37.305 35.0885 37.4357V39.02C35.0885 39.1507 35.2045 39.2487 35.3371 39.2487H37.5249C37.757 39.216 37.9393 39.3957 37.9393 39.608Z" fill="black"/>
<path d="M44.3039 34.3161V39.5753C44.3039 39.804 44.105 40 43.8564 40C43.6078 40 43.3923 39.804 43.3923 39.5753V37.4684C43.3923 37.3214 43.2597 37.207 43.0939 37.207H40.442C40.2763 37.207 40.1437 37.3214 40.1437 37.4684V39.5753C40.1437 39.804 39.9448 40 39.6961 40C39.4475 40 39.2321 39.804 39.2321 39.5753V34.3161C39.2321 34.0874 39.431 33.8914 39.6961 33.8914C39.9448 33.8914 40.1437 34.0874 40.1437 34.3161V36.1617C40.1437 36.3087 40.2763 36.423 40.442 36.423H43.0939C43.2597 36.423 43.3923 36.3087 43.3923 36.1617V34.3161C43.3923 34.0874 43.5912 33.8914 43.8564 33.8914C44.105 33.8914 44.3039 34.0874 44.3039 34.3161Z" fill="black"/>
<path d="M51.2321 34.2834V39.5917C51.2321 39.804 51.0332 40 50.8012 40C50.5525 40 50.3536 39.8203 50.3536 39.5917V36.6353C50.3536 36.178 50.3702 35.688 50.4199 35.1327L47.0056 39.804C46.9227 39.9183 46.7901 39.9836 46.6409 39.9836H46.3592C46.1105 39.9836 45.9282 39.804 45.9282 39.5753V34.267C45.9282 34.0547 46.1271 33.8587 46.3592 33.8587C46.6078 33.8587 46.7901 34.0384 46.7901 34.267V37.256C46.7901 37.7623 46.7735 38.2523 46.7404 38.6933L50.1547 34.0547C50.2376 33.9404 50.3702 33.875 50.5194 33.875H50.8012C51.0332 33.8914 51.2321 34.071 51.2321 34.2834Z" fill="black"/>
<path d="M56.5525 33.8914H55.1437C54.3149 33.8914 53.6851 34.0384 53.2873 34.3324C52.8564 34.6427 52.6575 35.0674 52.6575 35.6227C52.6575 36.0637 52.7735 36.4394 52.989 36.7334C53.1547 36.9457 53.3868 37.109 53.6851 37.2397C53.7514 37.2724 53.8011 37.3377 53.8177 37.403C53.8343 37.4684 53.8343 37.55 53.7845 37.6154L52.5746 39.3303C52.4917 39.461 52.4752 39.608 52.558 39.755C52.6243 39.902 52.7901 40 52.9724 40C53.1216 40 53.2707 39.9347 53.3536 39.804L54.8287 37.648C54.8785 37.5664 54.9779 37.5174 55.0774 37.5174H55.8067C55.9724 37.5174 56.105 37.6317 56.105 37.7787V39.5753C56.105 39.804 56.3039 40 56.5691 40C56.8177 40 57.0166 39.804 57.0166 39.5753V34.3161C57 34.0874 56.8011 33.8914 56.5525 33.8914ZM55.7901 36.766H55.1934C54.116 36.766 53.6022 36.4067 53.6022 35.6554C53.6022 35.296 53.7348 35.051 53.9834 34.8877C54.2486 34.7244 54.6464 34.6427 55.1768 34.6427H55.8067C55.9724 34.6427 56.105 34.757 56.105 34.904V36.4884C56.0884 36.6517 55.9558 36.766 55.7901 36.766Z" fill="black"/>
<path d="M46.6409 18.5713L42.2652 14.9126V8.44467C42.2652 7.43201 41.4365 6.61535 40.4088 6.61535H38.7845C37.8066 6.61535 37.0111 7.39935 37.0111 8.36301V10.5353L24.9613 0.474072C24.2155 -0.14659 23.0221 -0.14659 22.2762 0.474072L0.596685 18.5713C0.21547 18.8816 0 19.3389 0 19.7962V23.8142C0 24.4512 0.381215 25.0065 1.02762 25.3005C1.79006 25.6435 2.66851 25.5455 3.28177 25.0229C3.66298 24.7125 4.19337 24.7289 4.54144 24.8922C4.69061 24.9575 5.03867 25.1535 5.03867 25.5455V38.0568C5.03867 38.6938 5.41989 39.2491 6.0663 39.5431C6.36464 39.6737 6.67956 39.7391 6.99448 39.7391C7.47514 39.7391 7.9558 39.5757 8.32044 39.2654L11.7017 36.4398C12.0829 36.1294 12.2983 35.6721 12.2983 35.2148V17.8036C12.2983 17.6076 12.3978 17.4279 12.5635 17.2809L22.8729 8.67334C23.2707 8.34667 23.9503 8.34667 24.3646 8.67334L43.9558 25.0392C44.5691 25.5455 45.4475 25.6599 46.2099 25.3169C46.8563 25.0229 47.2376 24.4675 47.2376 23.8305V19.8126C47.2376 19.3389 47.0221 18.8979 46.6409 18.5713ZM37.9392 8.36301C37.9392 7.90568 38.3204 7.53001 38.7845 7.53001H40.4088C40.9227 7.53001 41.337 7.93834 41.337 8.44467V14.145L37.9392 11.303V8.36301ZM46.3094 23.8142C46.3094 24.2062 45.9613 24.4022 45.8122 24.4839C45.4641 24.6472 44.9337 24.6635 44.5525 24.3369L24.9613 7.97101C24.2155 7.35035 23.0221 7.35035 22.2762 7.97101L11.9669 16.5786C11.5856 16.8889 11.3702 17.3463 11.3702 17.8036V35.2311C11.3702 35.4271 11.2707 35.6068 11.105 35.7538L7.72376 38.5794C7.34254 38.9061 6.81215 38.8898 6.46409 38.7264C6.31492 38.6611 5.96685 38.4651 5.96685 38.0731V25.5619C5.96685 24.9249 5.58564 24.3695 4.93923 24.0755C4.64088 23.9449 4.32597 23.8795 4.02762 23.8795C3.54696 23.8795 3.0663 24.0429 2.70166 24.3532C2.32044 24.6799 1.79006 24.6635 1.44199 24.5002C1.29282 24.4349 0.944751 24.2225 0.944751 23.8305V19.8126C0.944751 19.6329 1.0442 19.4369 1.20994 19.2899L22.8729 1.1764C23.2707 0.833402 23.9503 0.833402 24.3646 1.1764L46.0442 19.2736C46.2099 19.4206 46.3094 19.6002 46.3094 19.7962V23.8142Z" fill="black"/>
</svg>
