<svg width="81" height="74" viewBox="0 0 81 74" fill="none" xmlns="http://www.w3.org/2000/svg">
<rect opacity="0.2" y="12" width="62" height="62" rx="3" fill="#F7E32B"/>
<g clip-path="url(#clip0)">
<path d="M34.0216 46.4698L31.265 23.7941C31.0056 21.5177 31.7765 19.3841 33.1866 17.828L31.9073 16.2515C27.3671 16.2515 23.8388 20.2047 24.3528 24.7157L26.8321 46.4721C27.4953 52.2923 32.4205 56.688 38.2784 56.688H45.4684L45.4679 56.6857C39.6102 56.6857 34.685 52.2899 34.0216 46.4698Z" fill="#FFE68E"/>
<path d="M64.7216 58.9914H38.2784C31.2442 58.9914 25.3393 53.7211 24.5429 46.7322L22.0636 24.9759C21.7442 22.1742 22.638 19.3609 24.5156 17.2571C26.3932 15.1533 29.0874 13.9467 31.9072 13.9467C33.1797 13.9467 34.2112 14.9783 34.2112 16.2508C34.2112 17.5234 33.1797 18.5549 31.9072 18.5549C30.3767 18.5549 28.9726 19.1837 27.9536 20.3256C26.9345 21.4674 26.4687 22.9336 26.642 24.4541L29.1213 46.2105C29.6522 50.8698 33.5889 54.3833 38.2783 54.3833H64.7215C69.4108 54.3833 73.3475 50.8698 73.8784 46.2105L76.3577 24.4541C76.531 22.9336 76.0651 21.4672 75.046 20.3255C74.0269 19.1837 72.6229 18.5549 71.0926 18.5549C69.82 18.5549 68.7885 17.5234 68.7885 16.2508C68.7885 14.9783 69.82 13.9467 71.0926 13.9467C73.9124 13.9467 76.6065 15.1533 78.4841 17.257C80.3616 19.3607 81.2555 22.1741 80.9362 24.9759L78.4569 46.7322C77.6608 53.7211 71.7558 58.9914 64.7216 58.9914ZM43.0991 32.725V13.0251C43.0991 8.38793 46.8718 4.61523 51.509 4.61523C56.1462 4.61523 59.9188 8.38793 59.9188 13.0251V13.9467H50.0113C48.7388 13.9467 47.7073 14.9783 47.7073 16.2508C47.7073 17.5234 48.7388 18.5549 50.0113 18.5549H62.2229C63.4955 18.5549 64.527 17.5234 64.527 16.2508V13.0251C64.527 5.84688 58.6872 0.00708008 51.509 0.00708008C44.3307 0.00708008 38.4909 5.84688 38.4909 13.0251V32.725C38.4909 33.9975 39.5225 35.029 40.795 35.029C42.0676 35.029 43.0991 33.9975 43.0991 32.725Z" fill="#484848"/>
<circle cx="59" cy="29" r="3" fill="#F2CC52"/>
<circle cx="49" cy="40" r="3" fill="#F2CC52"/>
<circle cx="64" cy="43" r="3" fill="#F2CC52"/>
</g>
<defs>
<clipPath id="clip0">
<rect x="22" width="59" height="59" fill="white"/>
</clipPath>
</defs>
</svg>
