<svg width="73" height="76" viewBox="0 0 73 76" fill="none" xmlns="http://www.w3.org/2000/svg">
<rect opacity="0.2" y="14" width="62" height="62" rx="3" fill="#F7E32B"/>
<g clip-path="url(#clip0)">
<path d="M42.2668 50.5676L36.2501 44.5509C31.1604 39.4612 28.301 32.558 28.301 25.3599V16.1881C28.301 9.13102 34.6563 3.62827 41.5958 4.91156C43.4602 5.2563 45.2812 4.40941 47.0903 3.06902C42.961 3.3601 38.8596 3.17299 34.786 2.51068C27.7685 1.36983 21.3923 6.7602 21.3923 13.8698V25.5338C21.3923 34.3899 24.9105 42.8832 31.1726 49.1454L35.3581 53.3309C39.4178 57.3906 45.7545 57.2089 50.2567 53.9381C47.3609 53.9003 44.4765 52.7773 42.2668 50.5676Z" fill="#FFE68E"/>
<path d="M43.5 59C39.9616 59 36.4233 57.6533 33.7296 54.9596L29.544 50.774C26.2127 47.4425 23.6092 43.5462 21.8064 39.1937C20.0035 34.841 19.0894 30.2451 19.0894 25.5339V13.8698C19.0894 9.81502 20.8604 5.98313 23.9483 3.35668C27.0477 0.720336 31.1322 -0.416255 35.1555 0.237536C40.6696 1.13417 46.2956 1.11701 51.8772 0.186987C55.859 -0.476936 59.9156 0.644686 63.0067 3.2633C66.1232 5.90333 67.9106 9.75918 67.9106 13.842V25.534C67.9106 30.2452 66.9965 34.8411 65.1935 39.1937C63.3906 43.5465 60.7873 47.4426 57.4558 50.774L53.2703 54.9595C50.5766 57.6532 47.0382 59 43.5 59ZM32.9208 4.66277C30.7393 4.66277 28.6174 5.43182 26.9324 6.86502C24.875 8.61499 23.6951 11.1682 23.6951 13.8698V25.5339C23.6951 33.838 26.929 41.6452 32.8009 47.5172L36.9865 51.7027C40.5781 55.2944 46.422 55.2942 50.0136 51.7027L54.1991 47.5172C60.071 41.6452 63.3048 33.8381 63.3048 25.534V13.842C63.3048 11.1157 62.111 8.54083 60.0296 6.77751C57.9737 5.03561 55.2781 4.28981 52.6343 4.73001C46.5564 5.74294 40.4269 5.7609 34.4163 4.78378C33.9179 4.70272 33.4177 4.66277 32.9208 4.66277ZM52.2557 2.45856H52.2568H52.2557Z" fill="#484848"/>
<path d="M50.8692 32.101C50.8692 28.5032 47.6695 25.5762 43.7367 25.5762C42.065 25.5762 40.8516 24.769 40.8516 23.6571C40.8516 22.5989 41.7039 21.738 42.7515 21.738C43.8076 21.738 45.1833 21.8531 47.3797 22.7073C48.5649 23.1683 49.8998 22.5809 50.3607 21.3957C50.8216 20.2102 50.2344 18.8756 49.0491 18.4147C47.9058 17.9701 46.9089 17.6784 46.0331 17.4865V15.712C46.0331 14.4401 45.0021 13.4091 43.7302 13.4091C42.4583 13.4091 41.4273 14.4401 41.4273 15.712V17.2683C38.473 17.8834 36.2458 20.5141 36.2458 23.657C36.2458 27.3768 39.4662 30.1819 43.7367 30.1819C45.1063 30.1819 46.2634 31.0606 46.2634 32.1009C46.2634 33.1232 45.3129 34.02 44.2291 34.02C43.3836 34.02 41.2622 33.71 39.169 32.8779C37.9869 32.4083 36.6481 32.9854 36.1784 34.1672C35.7086 35.3492 36.2859 36.6882 37.4677 37.158C38.8013 37.6881 40.1926 38.0663 41.4272 38.3059V39.662C41.4272 40.9339 42.4582 41.9649 43.7301 41.9649C45.002 41.9649 46.033 40.9339 46.033 39.662V38.376C47.086 38.0799 48.059 37.526 48.87 36.7445C50.1592 35.5023 50.8692 33.8532 50.8692 32.101Z" fill="#F2CC52"/>
</g>
<defs>
<clipPath id="clip0">
<rect x="14" width="59" height="59" fill="white"/>
</clipPath>
</defs>
</svg>
