<svg width="80" height="76" viewBox="0 0 80 76" fill="none" xmlns="http://www.w3.org/2000/svg">
<rect opacity="0.2" y="14" width="62" height="62" rx="3" fill="#F7E32B"/>
<path d="M44.3959 15.5566C44.3959 9.66551 48.2403 4.67321 53.557 2.94919C52.2684 2.53147 50.8939 2.30469 49.4662 2.30469C42.1473 2.30469 36.2142 8.23776 36.2142 15.5566C36.2142 22.8755 42.1473 28.8086 49.4662 28.8086C50.8939 28.8086 52.2684 28.5818 53.557 28.1641C48.2403 26.4401 44.3959 21.4478 44.3959 15.5566Z" fill="#FFE68E"/>
<path d="M50.5033 31.1133C59.0812 31.1133 66.0599 24.1346 66.0599 15.5566C66.0599 6.97871 59.0812 0 50.5033 0C41.9254 0 34.9467 6.97871 34.9467 15.5566C34.9467 24.1346 41.9252 31.1133 50.5033 31.1133ZM50.5033 4.60938C56.5396 4.60938 61.4506 9.52032 61.4506 15.5566C61.4506 21.593 56.5396 26.5039 50.5033 26.5039C44.467 26.5039 39.556 21.593 39.556 15.5566C39.556 9.52032 44.467 4.60938 50.5033 4.60938Z" fill="#484848"/>
<path d="M79.2859 44.0051C77.7833 41.1185 74.3627 39.8637 71.1784 41.0719C68.9579 41.9148 66.2427 42.945 63.2874 43.7599C63.56 42.4476 63.4241 41.058 62.879 39.7368C62.0844 37.8106 60.4511 36.3774 58.3982 35.8048C57.3489 35.5121 56.2097 35.4462 55.0121 35.609C47.1153 36.6831 42.4141 34.0129 38.2659 31.6572C35.4775 30.0738 32.8441 28.5781 29.7611 28.5781C25.8431 28.5781 22.6196 29.8357 22.6196 29.8357C21.4048 30.2158 20.7283 31.5088 21.1085 32.7236C21.4887 33.9383 22.7814 34.6151 23.9964 34.2346C23.9964 34.2346 26.765 33.1875 29.7611 33.1875C31.6265 33.1875 33.5519 34.281 35.9896 35.6653C39.6398 37.7381 44.4324 40.4603 51.5564 40.4601C52.8374 40.4601 54.1947 40.3719 55.6332 40.1763C56.1967 40.0997 56.7248 40.1233 57.1599 40.2447C57.6458 40.3802 58.293 40.7071 58.6181 41.4947C58.8702 42.1057 58.8828 42.6774 58.6554 43.194C58.3767 43.8277 57.7413 44.3528 56.8668 44.6726C55.6044 45.1341 53.929 45.38 51.8861 45.4023C49.6952 45.4185 47.4392 45.1658 45.5578 44.6714C44.3267 44.3478 43.0664 45.0837 42.743 46.3148C42.4195 47.5458 43.1553 48.806 44.3863 49.1295C46.5895 49.7084 49.2357 50.0118 51.7709 50.0118C60.5285 49.9725 68.0352 47.1954 72.8138 45.3815C73.6149 45.0776 74.6965 45.1714 75.1795 46.0996C75.6118 46.9302 75.3129 48.001 74.4893 48.441C68.7051 51.5311 61.9929 54.3906 52.1295 54.3906C43.3487 54.3906 35.2607 51.0022 30.0219 48.1597C25.9863 45.97 23.0372 46.6616 22.7143 46.7477L22.7157 46.7529C21.7303 47.0146 21.0032 47.9102 21.0032 48.978C21.0032 50.2508 22.035 51.2826 23.3079 51.2826C23.499 51.2826 23.6839 51.2568 23.8615 51.2129C24.0677 51.1777 25.5591 50.9825 27.8236 52.2111C33.5316 55.3081 42.3817 59 52.1295 59C64.5065 59 72.716 54.6142 76.6613 52.5065C79.7028 50.8816 80.8809 47.0692 79.2859 44.0051Z" fill="#484848"/>
<path d="M51.7711 50.0117C51.7324 50.0122 51.8577 50.0117 51.7711 50.0117V50.0117Z" fill="#1428BF"/>
<path d="M50.5033 21.4336C49.2304 21.4336 48.1986 20.4018 48.1986 19.1289V14.2891C46.9257 14.2891 45.8939 13.2573 45.8939 11.9844C45.8939 10.7115 46.9257 9.67969 48.1986 9.67969H50.5033C51.7762 9.67969 52.808 10.7115 52.808 11.9844V19.1289C52.808 20.4018 51.776 21.4336 50.5033 21.4336Z" fill="#F2CC52"/>
</svg>
