<svg width="87" height="78" viewBox="0 0 87 78" fill="none" xmlns="http://www.w3.org/2000/svg">
<rect opacity="0.2" y="16" width="62" height="62" rx="3" fill="#F7E32B"/>
<g clip-path="url(#clip0)">
<path d="M70.1124 41.0231C65.3165 41.0231 61.4149 44.9247 61.4149 49.7206C61.4149 54.5165 65.3165 58.4181 70.1124 58.4181C74.9091 58.4181 78.8099 54.5165 78.8099 49.7206C78.8099 44.9247 74.9083 41.0231 70.1124 41.0231ZM70.1124 54.0693C67.7141 54.0693 65.7637 52.1189 65.7637 49.7206C65.7637 47.3223 67.7141 45.3718 70.1124 45.3718C72.5107 45.3718 74.4612 47.3223 74.4612 49.7206C74.4612 52.119 72.5107 54.0693 70.1124 54.0693Z" fill="#484848"/>
<path d="M40.3961 41.0231C35.6002 41.0231 31.6986 44.9247 31.6986 49.7206C31.6986 54.5165 35.6002 58.4181 40.3961 58.4181C45.192 58.4181 49.0936 54.5165 49.0936 49.7206C49.0936 44.9247 45.192 41.0231 40.3961 41.0231ZM40.3961 54.0693C37.9978 54.0693 36.0474 52.1189 36.0474 49.7206C36.0474 47.3223 37.9978 45.3718 40.3961 45.3718C42.7937 45.3718 44.7449 47.3223 44.7449 49.7206C44.7449 52.119 42.7944 54.0693 40.3961 54.0693Z" fill="#484848"/>
<path d="M75.9695 16.1281C75.5998 15.3939 74.8482 14.9307 74.0263 14.9307H62.5746V19.2794H72.6854L78.6062 31.0558L82.4925 29.1017L75.9695 16.1281Z" fill="#484848"/>
<path d="M63.5893 47.6188H47.1366V51.9675H63.5893V47.6188Z" fill="#484848"/>
<path d="M33.8729 47.6188H26.3352C25.1342 47.6188 24.1609 48.5922 24.1609 49.7931C24.1609 50.9941 25.1343 51.9674 26.3352 51.9674H33.873C35.0741 51.9674 36.0474 50.994 36.0474 49.7931C36.0474 48.5921 35.0739 47.6188 33.8729 47.6188Z" fill="#484848"/>
<path d="M86.5435 34.3261L82.2666 28.8176C81.8557 28.2871 81.2215 27.9768 80.5495 27.9768H64.7491V12.7563C64.7491 11.5552 63.7756 10.582 62.5748 10.582H26.3352C25.1342 10.582 24.1609 11.5554 24.1609 12.7563C24.1609 13.9572 25.1343 14.9306 26.3352 14.9306H60.4003V30.1512C60.4003 31.3522 61.3737 32.3255 62.5746 32.3255H79.4847L82.6513 36.4045V47.6185H76.6355C75.4345 47.6185 74.4612 48.5919 74.4612 49.7928C74.4612 50.9939 75.4346 51.9672 76.6355 51.9672H84.8256C86.0267 51.9672 86.9999 50.9937 87.0001 49.7928V35.6597C87.0001 35.177 86.8392 34.7073 86.5435 34.3261Z" fill="#484848"/>
<path d="M33.7279 36.6019H23.7257C22.5247 36.6019 21.5514 37.5753 21.5514 38.7762C21.5514 39.9773 22.5248 40.9505 23.7257 40.9505H33.7277C34.9288 40.9505 35.902 39.9771 35.902 38.7762C35.9022 37.5753 34.9288 36.6019 33.7279 36.6019Z" fill="#F2CC52"/>
<path d="M38.729 28.0493H20.1743C18.9734 28.0493 18 29.0227 18 30.2238C18 31.4248 18.9734 32.3981 20.1743 32.3981H38.729C39.93 32.3981 40.9033 31.4247 40.9033 30.2238C40.9033 29.0229 39.93 28.0493 38.729 28.0493Z" fill="#F2CC52"/>
<path d="M42.2804 19.4968H23.7257C22.5247 19.4968 21.5514 20.4702 21.5514 21.6711C21.5514 22.8722 22.5248 23.8454 23.7257 23.8454H42.2804C43.4814 23.8454 44.4547 22.872 44.4547 21.6711C44.4548 20.4702 43.4814 19.4968 42.2804 19.4968Z" fill="#F2CC52"/>
</g>
<defs>
<clipPath id="clip0">
<rect x="18" width="69" height="69" fill="white"/>
</clipPath>
</defs>
</svg>
