<svg width="77" height="74" viewBox="0 0 77 74" fill="none" xmlns="http://www.w3.org/2000/svg">
<rect opacity="0.2" y="12" width="62" height="62" rx="3" fill="#F7E32B"/>
<path d="M72.0642 13.2711C71.1094 13.9137 69.9598 14.2891 68.7224 14.2891C65.4129 14.2891 62.7302 11.6063 62.7302 8.29688C62.7302 4.98746 65.4129 2.30469 68.7224 2.30469C69.9598 2.30469 71.1094 2.68001 72.0642 3.32255C70.4655 4.39861 69.4138 6.22485 69.4138 8.29688C69.4138 10.3689 70.4655 12.195 72.0642 13.2711ZM69.3945 29.1543C69.3945 27.0823 70.4463 25.2561 72.0449 24.18C71.0902 23.5373 69.9405 23.1621 68.7031 23.1621C65.3937 23.1621 62.7109 25.8449 62.7109 29.1543C62.7109 32.4637 65.3937 35.1465 68.7031 35.1465C69.9405 35.1465 71.0902 34.7712 72.0449 34.1286C70.4463 33.0524 69.3945 31.2263 69.3945 29.1543ZM69.3945 50.7031C69.3945 48.6311 70.4463 46.805 72.0449 45.7288C71.0902 45.0861 69.9405 44.7109 68.7031 44.7109C65.3937 44.7109 62.7109 47.3937 62.7109 50.7031C62.7109 54.0125 65.3937 56.6953 68.7031 56.6953C69.9405 56.6953 71.0902 56.32 72.0449 55.6774C70.4463 54.6013 69.3945 52.7752 69.3945 50.7031ZM31.37 53.9976C31.37 44.25 27.2187 39.1797 27.2187 39.1797V29.459C27.2187 26.0478 29.378 23.141 32.4043 22.0307C31.5549 21.7191 30.6372 21.5488 29.6797 21.5488H28.2148C23.8462 21.5488 20.3047 25.0903 20.3047 29.459V39.1797C20.3047 39.1797 24.4559 44.25 24.4559 53.9976C24.4559 55.5289 25.8632 56.6953 27.3946 56.6953H30.4999C31.2022 56.6953 31.8779 56.4495 32.4043 56.0362C31.783 55.5483 31.37 54.8267 31.37 53.9976Z" fill="#FFE68E"/>
<path d="M68.7031 37.5664C64.1282 37.5664 60.4062 33.8445 60.4062 29.2695C60.4062 24.6946 64.1282 20.9727 68.7031 20.9727C73.278 20.9727 77 24.6946 77 29.2695C77 33.8445 73.278 37.5664 68.7031 37.5664ZM68.7031 25.582C66.6698 25.582 65.0156 27.2362 65.0156 29.2695C65.0156 31.3028 66.6698 32.957 68.7031 32.957C70.7364 32.957 72.3906 31.3028 72.3906 29.2695C72.3906 27.2362 70.7364 25.582 68.7031 25.582ZM68.7031 16.5938C64.1282 16.5938 60.4062 12.8718 60.4062 8.29688C60.4062 3.72196 64.1282 0 68.7031 0C73.278 0 77 3.72196 77 8.29688C77 12.8718 73.278 16.5938 68.7031 16.5938ZM68.7031 4.60938C66.6698 4.60938 65.0156 6.26356 65.0156 8.29688C65.0156 10.3302 66.6698 11.9844 68.7031 11.9844C70.7364 11.9844 72.3906 10.3302 72.3906 8.29688C72.3906 6.26356 70.7364 4.60938 68.7031 4.60938ZM30.4999 59H27.3946C24.5034 59 22.1512 56.7559 22.1512 53.9976C22.1512 45.3159 18.5577 40.6841 18.5214 40.6397C18.1843 40.2279 18 39.712 18 39.1797V29.459C18 23.8266 22.5824 19.2441 28.2148 19.2441H29.6797C35.3121 19.2441 39.8945 23.8266 39.8945 29.459V39.1797C39.8945 39.7199 39.7244 40.2192 39.3784 40.6334C39.2322 40.8224 35.7433 45.4386 35.7433 53.9976C35.7433 56.7559 33.3912 59 30.4999 59ZM22.6094 38.4418C23.833 40.2772 26.7605 45.5511 26.7605 53.9976C26.7605 54.1492 27.0506 54.3906 27.3945 54.3906H30.4998C30.8437 54.3906 31.1338 54.1492 31.1338 53.9976C31.1338 45.5512 34.0614 40.2772 35.285 38.4418V29.459C35.2852 26.3682 32.7705 23.8535 29.6797 23.8535H28.2148C25.124 23.8535 22.6094 26.3682 22.6094 29.459V38.4418ZM37.5898 39.1797H37.591H37.5898ZM28.832 15.6719C24.5113 15.6719 20.9961 12.1567 20.9961 7.83594C20.9961 3.51522 24.5113 0 28.832 0C33.1527 0 36.668 3.51522 36.668 7.83594C36.668 12.1567 33.1527 15.6719 28.832 15.6719ZM28.832 4.60938C27.0529 4.60938 25.6055 6.05683 25.6055 7.83594C25.6055 9.61504 27.0529 11.0625 28.832 11.0625C30.6111 11.0625 32.0586 9.61504 32.0586 7.83594C32.0586 6.05683 30.6111 4.60938 28.832 4.60938ZM68.7031 59C64.1282 59 60.4062 55.278 60.4062 50.7031C60.4062 46.1282 64.1282 42.4062 68.7031 42.4062C73.278 42.4062 77 46.1282 77 50.7031C77 55.278 73.278 59 68.7031 59ZM68.7031 47.0156C66.6698 47.0156 65.0156 48.6698 65.0156 50.7031C65.0156 52.7364 66.6698 54.3906 68.7031 54.3906C70.7364 54.3906 72.3906 52.7364 72.3906 50.7031C72.3906 48.6698 70.7364 47.0156 68.7031 47.0156Z" fill="#484848"/>
<path d="M54.0685 48.5137C51.4902 48.5137 49.3927 46.4161 49.3927 43.8379V31.5742H53.838C55.1109 31.5742 56.1427 30.5424 56.1427 29.2695C56.1427 27.9967 55.1109 26.9648 53.838 26.9648H49.3927V15.0468C49.3927 12.4687 51.4902 10.3711 54.0685 10.3711C55.3413 10.3711 56.3731 9.33929 56.3731 8.06641C56.3731 6.79353 55.3413 5.76172 54.0685 5.76172C48.9486 5.76172 44.7833 9.92698 44.7833 15.0468V43.8379C44.7833 48.9578 48.9486 53.123 54.0685 53.123C55.3413 53.123 56.3731 52.0912 56.3731 50.8184C56.3731 49.5455 55.3413 48.5137 54.0685 48.5137Z" fill="#F2CC52"/>
</svg>
